HIERARCHY
ROOT Hips
{
  OFFSET 26.7874 99.4974 20.5785
  CHANNELS 6 Xposition Yposition Zposition Zrotation Xrotation Yrotation
  JOINT ToSpine
  {
    OFFSET -0.0105055 1.38907 -7.13956
    CHANNELS 3 Zrotation Xrotation Yrotation
    JOINT Spine
    {
      OFFSET 0.0105055 10 1
      CHANNELS 3 Zrotation Xrotation Yrotation
      JOINT Spine1
      {
        OFFSET 0 12 1.60637
        CHANNELS 3 Zrotation Xrotation Yrotation
        JOINT Neck
        {
          OFFSET 0 27 2.26658
          CHANNELS 3 Zrotation Xrotation Yrotation
          JOINT Head
          {
            OFFSET 0 9 2.12705
            CHANNELS 3 Zrotation Xrotation Yrotation
            End Site
            {
              OFFSET 0 11 2
            }
          }
        }
        JOINT LeftShoulder
        {
          OFFSET 8 19.6109 2.86452
          CHANNELS 3 Zrotation Xrotation Yrotation
          JOINT LeftArm
          {
            OFFSET 12 1 0.681055
            CHANNELS 3 Zrotation Xrotation Yrotation
            JOINT LeftForeArm
            {
              OFFSET 19 0 -1.52608
              CHANNELS 3 Zrotation Xrotation Yrotation
              JOINT LeftHand
              {
                OFFSET 23 0 0
                CHANNELS 3 Zrotation Xrotation Yrotation
                End Site
                {
                  OFFSET 10 0 0
                }
              }
            }
          }
        }
        JOINT RightShoulder
        {
          OFFSET -8 19.6109 2.86452
          CHANNELS 3 Zrotation Xrotation Yrotation
          JOINT RightArm
          {
            OFFSET -12 1 0.681055
            CHANNELS 3 Zrotation Xrotation Yrotation
            JOINT RightForeArm
            {
              OFFSET -19 0 -1.52608
              CHANNELS 3 Zrotation Xrotation Yrotation
              JOINT RightHand
              {
                OFFSET -23 0 0
                CHANNELS 3 Zrotation Xrotation Yrotation
                End Site
                {
                  OFFSET -10 0 0
                }
              }
            }
          }
        }
      }
    }
  }
  JOINT LeftUpLeg
  {
    OFFSET 9 -7.17245 0
    CHANNELS 3 Zrotation Xrotation Yrotation
    JOINT LeftLeg
    {
      OFFSET 0 -44.1113 0
      CHANNELS 3 Zrotation Xrotation Yrotation
      JOINT LeftFoot
      {
        OFFSET 0 -36.1829 0
        CHANNELS 3 Zrotation Xrotation Yrotation
        JOINT LeftToeBase
        {
          OFFSET 0 -4.84184 13
          CHANNELS 3 Zrotation Xrotation Yrotation
          End Site
          {
            OFFSET 0 1 6
          }
        }
      }
    }
  }
  JOINT RightUpLeg
  {
    OFFSET -9 -7.17245 0
    CHANNELS 3 Zrotation Xrotation Yrotation
    JOINT RightLeg
    {
      OFFSET 0 -44.0551 0
      CHANNELS 3 Zrotation Xrotation Yrotation
      JOINT RightFoot
      {
        OFFSET 0 -36.1469 0
        CHANNELS 3 Zrotation Xrotation Yrotation
        JOINT RightToeBase
        {
          OFFSET 0 -4.92256 13
          CHANNELS 3 Zrotation Xrotation Yrotation
          End Site
          {
            OFFSET 0 1 6
          }
        }
      }
    }
  }
}
MOTION
Frames:	15
Frame Time:	0.0333333
26.7034 99.3943 20.5384 0.994569 -2.39536 -3.80065 0 0 0 2.05003 0.404045 1.21965 -4.4192 8.34717 2.06298 11.0217 54.0829 -4.80469 -1.92231 -1.59257 3.79903 -29.3962 2.47311 -3.49101 -41.647 25.9569 -17.2397 -6.25962 -16.1603 -5.18232 -9.07308 0.345185 -4.34401 20.8557 3.65093 9.85152 53.8357 16.4245 9.47967 3.03611 -0.69608 11.5114 2.42436 0.0885095 4.20932 -0.51524 1.42066 6.66856 -0.914551 8.80465 -0.709801 2.87903 -8.94041 0.224869 0.652612 1.81091 -3.03292 -2.39078 1.88206 -7.53732 0.890974 6.35072 0.754534 -12.783 -3.03848 -0.339634 3.29217 -12.1617 -1.7221 
26.6759 99.3931 20.4454 0.964791 -1.99681 -3.75528 0 0 0 1.26432 -0.16606 0.815347 -2.29962 8.78029 1.12821 4.14312 54.9878 0.415668 0.416158 -0.429425 3.72731 -32.5679 2.32119 -2.51317 -39.2267 27.3468 -16.4261 -7.04783 -19.1381 -7.16503 -8.27596 0.292739 -4.04691 17.8945 3.49093 10.6729 55.6458 16.6835 9.86885 3.52647 -1.95162 10.5854 1.74356 0.0679088 4.49236 -0.356208 0.790301 6.75973 -1.07384 9.06646 -0.813744 3.29188 -8.7049 0.250672 0.617651 1.19882 -2.79325 -2.28888 1.38298 -7.35009 0.89079 6.3374 1.01118 -13.1736 -2.47512 -0.285517 3.49471 -12.9167 -2.6735 
26.6241 99.3948 20.2768 1.04713 -1.00863 -3.77507 0 0 0 2.10114 -0.936967 1.34264 -4.84525 8.52397 2.30614 13.2288 55.1812 -6.79727 -2.29017 1.76887 3.618 -28.373 2.48209 -3.6809 -42.6565 26.0309 -16.7356 -6.38179 -17.601 -5.2154 -8.24223 0.286406 -3.97568 20.6236 3.55474 9.57399 54.5432 15.8113 9.12847 2.75771 0.836612 11.063 2.89166 0.103214 4.07541 -0.311016 -0.588299 6.58386 -1.07684 9.50496 -0.54469 3.1873 -8.88591 0.247733 0.651275 1.43774 -2.96718 -2.18231 0.136813 -7.02487 0.739421 6.40098 0.11773 -12.7729 -2.90694 -0.325044 3.2819 -12.1501 -1.43453 
26.6217 99.3869 20.3004 1.20015 -1.3121 -3.94262 0 0 0 1.96945 -0.845074 1.45185 -5.00628 8.78797 2.48229 13.8575 55.869 -7.53227 -1.80795 3.32655 3.2962 -28.0527 2.48821 -3.77366 -42.8583 25.9733 -16.6291 -6.29218 -17.4709 -4.99124 -8.32848 0.292701 -3.99333 20.7194 3.51395 9.38889 54.6275 15.7962 8.85221 2.81342 0.468605 11.2357 3.05883 0.104733 3.91712 -0.575251 -0.0117311 6.44397 -1.02151 8.96859 -0.378234 3.27307 -8.64597 0.247498 0.611639 1.32504 -2.78949 -2.42147 0.41947 -7.2636 0.866586 6.46288 0.653368 -13.3736 -2.61902 -0.306773 3.46784 -12.8461 -1.89194 
26.6124 99.4015 20.274 1.19235 -1.51115 -3.94593 0 0 0 2.03495 -0.645259 1.42599 -5.12368 8.75133 2.48478 13.6151 56.7811 -7.52812 -1.21681 4.3415 3.07734 -28.1363 2.46246 -3.68492 -42.9609 25.6792 -16.298 -6.14731 -17.089 -5.1395 -8.58427 0.296428 -3.83541 20.6059 3.481 9.31993 54.8392 16.0915 8.65026 3.20959 -0.967863 11.3208 2.87456 0.0921483 3.67661 -0.495444 0.222363 6.63518 -1.19481 8.91432 -0.327514 3.25795 -8.63988 0.245763 0.744882 1.48662 -3.34576 -2.45124 0.590521 -7.33703 0.833447 6.57652 0.764778 -12.7644 -3.07134 -0.343849 3.27761 -12.1166 -1.70194 
26.5347 99.399 20.2033 1.20483 -1.5737 -3.99089 0 0 0 2.10643 -0.744682 1.60816 -5.71821 8.95721 2.82287 16.3864 56.9489 -9.94164 -1.8165 4.72482 2.85453 -26.6098 2.49074 -4.09 -44.605 24.7002 -16.2467 -5.88559 -16.5291 -4.82979 -8.60946 0.292498 -3.89088 21.2531 3.49235 9.07977 54.4811 16.5998 8.4397 3.60133 -2.38144 11.4916 2.63542 0.0893748 3.88092 -0.457723 0.156568 6.61912 -1.08785 9.15633 -0.482726 2.67595 -8.90951 0.208591 0.620879 2.21726 -2.97205 -2.33107 0.621731 -7.14554 0.692218 6.52506 0.53455 -12.6602 -3.01709 -0.33464 3.27639 -12.1137 -1.6609 
26.5473 99.3881 20.2221 0.976001 -2.14973 -4.00319 0 0 0 2.51099 -0.395126 1.58696 -5.92221 9.40827 2.8529 16.1965 57.034 -9.7872 -1.74562 4.57111 2.86084 -26.627 2.42698 -3.89433 -44.4738 25.0105 -16.454 -5.96827 -16.7097 -5.18262 -8.27244 0.274286 -3.79085 20.973 3.39654 8.85465 54.6973 16.356 8.67275 3.3966 -1.7669 11.4441 2.50722 0.08026 3.66548 -0.22493 0.865004 6.91757 -1.21001 9.02796 -0.792873 3.25975 -8.60473 0.245179 0.587363 1.24104 -2.67812 -2.15748 1.29417 -7.15275 0.68389 6.49482 0.656261 -12.3384 -3.12859 -0.338219 3.20413 -11.8433 -1.53525 
26.5648 99.4102 20.2042 0.927944 -2.42942 -3.96568 0 0 0 2.40294 -0.149367 1.46897 -5.66092 9.53134 2.6805 15.5949 56.9974 -9.31283 -1.62751 4.6168 2.85648 -26.7728 2.34457 -3.6127 -44.2682 25.5215 -16.3563 -6.03614 -16.8823 -5.85276 -8.14409 0.259664 -3.64621 20.7579 3.38001 8.88521 54.8186 16.0767 8.67517 3.28019 -1.73486 11.5925 2.32888 0.0735101 3.62464 -0.192553 1.29123 6.99721 -1.26543 8.73606 -0.903668 3.45335 -8.44232 0.254371 0.586284 1.0594 -2.6451 -2.17244 1.56141 -7.25412 0.705423 6.55448 0.91357 -12.5236 -3.00545 -0.329862 3.26421 -12.0678 -1.66448 
26.5345 99.3826 20.1308 1.05298 -2.3936 -3.8453 0 0 0 2.32064 -0.203393 1.36059 -5.82015 9.55838 2.60734 15.4481 56.8707 -9.13393 -1.54936 4.61741 2.89581 -26.72 2.31653 -3.53889 -44.1184 25.6322 -16.4755 -6.10334 -17.329 -5.7709 -8.28967 0.277083 -3.82218 20.7341 3.3667 8.84721 54.8839 16.2247 8.76352 3.45488 -2.3543 11.6423 1.90344 0.0647797 3.8904 -0.320293 1.09061 6.85951 -1.13473 8.97642 -0.866992 2.82373 -8.96426 0.221654 0.651635 2.13654 -3.07536 -2.25105 1.51255 -7.27398 0.741272 6.52799 0.780672 -12.6041 -3.16323 -0.349162 3.2398 -11.9306 -2.20631 
26.5093 99.3943 20.018 1.05448 -2.13025 -3.87665 0 0 0 2.35447 -0.417942 1.35229 -5.81566 9.53352 2.59948 15.3691 56.8376 -9.06394 -1.56319 4.43827 2.90434 -26.7567 2.32236 -3.54989 -44.1375 25.4007 -16.5292 -6.06022 -17.3078 -5.7398 -8.36424 0.287207 -3.92718 20.4843 3.35491 8.91097 54.9843 16.2909 8.82762 3.25181 -1.71241 11.8535 1.92062 0.0632232 3.78528 -0.304626 0.731776 6.81385 -1.12342 8.9325 -0.551165 2.94246 -8.74768 0.225102 0.773077 1.80816 -3.50673 -2.18802 1.06804 -7.1096 0.685716 6.69728 0.877961 -12.8462 -2.98425 -0.335105 3.30873 -12.1816 -2.42402 
26.4933 99.386 19.9378 0.932173 -2.04501 -3.80209 0 0 0 2.50182 -0.559543 1.40261 -5.921 9.71672 2.67068 16.1064 56.5846 -9.62684 -1.74779 4.27202 2.89462 -26.654 2.40493 -3.82237 -44.4344 24.7879 -16.6443 -5.86476 -16.7909 -5.51199 -8.21942 0.299553 -4.16689 20.7169 3.28921 8.57157 54.6804 16.0502 9.11919 2.81883 -0.0961434 11.8266 2.34844 0.0732063 3.56816 -0.080379 0.48148 6.96912 -1.21419 9.18116 -0.893291 3.03452 -8.73935 0.231901 0.70104 1.74225 -3.2113 -2.00113 0.992279 -6.96507 0.560474 6.60745 0.267644 -11.878 -3.57837 -0.373035 2.9828 -11.0022 -1.42105 
26.484 99.3827 19.892 0.951375 -2.11957 -3.82163 0 0 0 2.29154 -0.58235 1.38666 -5.44226 9.83248 2.5407 14.8446 56.7685 -8.61048 -1.14604 4.02276 2.84566 -27.5204 2.40181 -3.62915 -43.4924 25.2534 -16.8312 -6.03007 -17.2174 -5.85689 -8.27996 0.299881 -4.14058 20.4681 3.25609 8.55896 54.6128 16.0703 9.36323 2.7823 0.0455976 11.7439 2.16702 0.0688591 3.64272 -0.0480589 0.585511 7.022 -1.29565 9.09196 -1.12866 2.91524 -8.81677 0.224741 0.63597 1.92353 -2.98297 -2.03528 1.06682 -7.03826 0.616772 6.53499 0.476854 -11.8781 -3.27379 -0.340079 3.14128 -11.568 -1.91579 
26.4612 99.4122 19.8222 1.05825 -1.90655 -3.70253 0 0 0 2.40935 -1.03988 1.48437 -6.02877 10.3178 2.81963 16.8713 56.0242 -10.0725 -1.94998 4.27641 2.99382 -26.4467 2.32084 -3.61083 -43.9257 25.1372 -17.6928 -5.87904 -16.8576 -5.37556 -8.52653 0.310707 -4.16611 21.3121 3.21805 8.07974 53.9189 16.0069 9.72275 2.35462 1.36818 11.9848 2.7299 0.0819901 3.43407 -0.177947 0.340021 6.85459 -1.22591 8.94584 -0.854468 2.98479 -8.602 0.224699 0.733283 1.81564 -3.35032 -2.14501 0.746501 -7.11606 0.733355 6.5604 0.469834 -12.5741 -2.9502 -0.325563 3.23267 -11.9229 -1.95957 
26.4735 99.4621 19.7258 1.1112 -1.64585 -3.69801 0 0 0 1.8196 -0.746466 1.26394 -4.78248 9.25013 2.26477 13.8734 57.1729 -7.80385 -0.844024 3.94841 2.92171 -27.7165 2.33322 -3.38674 -43.503 25.1629 -16.6649 -6.08152 -17.2071 -6.24512 -8.45415 0.294536 -3.98279 20.1134 3.28412 8.80477 54.7181 16.1647 9.31997 2.63466 0.519638 11.8535 2.7089 0.0810676 3.51053 -0.262153 0.096605 6.67628 -1.17569 8.68419 -0.770997 2.59077 -8.52446 0.192936 0.699285 2.18657 -3.2705 -2.19936 0.307278 -7.07759 0.62739 6.75759 0.598717 -11.9523 -2.80336 -0.29347 3.23118 -11.9132 -2.00566 
26.4837 99.3942 19.7624 1.11539 -2.15273 -3.72909 0 0 0 2.01603 -0.440613 1.27617 -5.27694 9.51198 2.38997 14.5949 56.9336 -8.31909 -1.31101 3.9367 3.03698 -27.4881 2.34355 -3.46346 -43.6658 24.8556 -16.7375 -5.97541 -17.0468 -6.19498 -8.36432 0.297667 -4.07449 20.4686 3.30611 8.73705 54.5339 16.5721 9.52897 3.39862 -2.04533 11.7059 1.82886 0.070249 4.3734 -0.266369 0.54211 6.85522 -1.19897 9.02003 -0.892373 2.54117 -8.8549 0.196706 0.681525 2.48041 -3.24356 -2.25804 1.01137 -7.23965 0.773942 6.55049 0.701155 -12.4928 -2.98771 -0.326266 3.21839 -11.8356 -2.30353 
